<svg xmlns="http://www.w3.org/2000/svg" viewBox="0 0 40 36">
  <rect width="40" height="36" fill="#eef2ee"/>
  <g fill="#fafcf9" stroke="#30443a" stroke-width="0.55">
    <path d="M1 1H39V35H1Z"/>
    <rect x="2.5" y="2.5" width="9" height="8"/><rect x="12" y="2.5" width="8" height="8"/>
    <rect x="20.5" y="2.5" width="8" height="8"/><rect x="29" y="2.5" width="8.5" height="8"/>
    <rect x="2.5" y="12" width="4" height="12"/><rect x="9.5" y="12" width="8" height="6"/>
    <rect x="22.5" y="12" width="15" height="6"/><rect x="22.5" y="20" width="15" height="5"/>
    <rect x="2.5" y="26" width="13" height="7.5"/><rect x="24" y="26" width="13.5" height="7.5"/>
  </g>
  <g fill="none" stroke="#b6c3ba" stroke-width="3.6" stroke-linecap="square" stroke-linejoin="round">
    <path d="M8 31V20H20M8 20L12 9M20 20L29 10M12 9L29 10"/>
    <path d="M12 9L3 3M29 10L37 3"/>
  </g>
  <g fill="none" stroke="#60736a" stroke-width="0.2">
    <path d="M3 10.8h8M12.5 10.8h7M21 10.8h7M29.5 10.8h7" stroke-dasharray="0.6 0.3"/>
    <path d="M9.5 15h1.5a1.5 1.5 0 0 1-1.5 1.5M22.5 15H21a1.5 1.5 0 0 0 1.5 1.5"/>
    <path d="M15.5 29h1.7a1.7 1.7 0 0 1-1.7 1.7M24 29h-1.7a1.7 1.7 0 0 0 1.7 1.7"/>
  </g>
  <g fill="#3b5145" font-family="sans-serif" font-size="1" text-anchor="middle">
    <text x="7" y="6.5">1반</text><text x="16" y="6.5">2반</text><text x="24.5" y="6.5">3반</text><text x="33" y="6.5">과학실</text>
    <text x="4.5" y="18">계단</text><text x="13.5" y="15.5">도서실</text><text x="30" y="15.5">급식실</text>
    <text x="9" y="30">교무실</text><text x="30.5" y="30">다목적실</text>
  </g>
  <g fill="#6c7e73" font-family="sans-serif" font-size="0.78">
    <text x="2.2" y="34.2">2F SCHOOL PLAN</text><text x="36" y="2.2" font-size="1.2">N ↑</text>
  </g>
</svg>
